<svg xmlns="http://www.w3.org/2000/svg" viewBox="0 0 512 512">
  <defs>
    <linearGradient id="kimiGradient" x1="0%" y1="0%" x2="100%" y2="100%">
      <stop offset="0%" stop-color="#7c3aed"/>
      <stop offset="50%" stop-color="#6366f1"/>
      <stop offset="100%" stop-color="#3b82f6"/>
    </linearGradient>
  </defs>
  <rect width="512" height="512" rx="112" fill="url(#kimiGradient)"/>
  <path d="M160 136c-13.3 0-24 10.7-24 24v192c0 13.3 10.7 24 24 24h32c13.3 0 24-10.7 24-24V301l76 79c9 9.4 24 10.1 33.6 1.5l22.6-21.4c9.8-9.3 10.3-24.8 1-34.2L283 250l66.6-76.4c9.2-9.5 8.6-24.7-1.4-33.9l-22.6-20.8c-9.7-8.9-24.8-8.3-33.8 1.4L214 211V160c0-13.3-10.7-24-24-24h-30z" fill="#ffffff"/>
</svg>
